<?xml version="1.0" encoding="UTF-8"?>
<svg version="1.1" xmlns="http://www.w3.org/2000/svg" width="570" height="570" viewBox="418 99 570 570">
<path d="M0 0 C3.51473344 -0.00205121 7.02946167 -0.00580827 10.54419327 -0.00990677 C16.16386278 -0.01584271 21.7835047 -0.01585739 27.40317535 -0.011446 C29.47372928 -0.01042263 31.54428471 -0.01093439 33.61483765 -0.01320457 C47.55286817 -0.02583325 61.43068248 0.37013177 75.34872818 1.12293625 C73.61077257 4.90940828 71.65401988 6.73287212 68.34872818 9.31043625 C59.98748225 16.00161609 52.45088213 22.64579343 45.79404068 31.06824875 C42.39072805 35.31967123 38.81978641 39.41989003 35.24570084 43.52796555 C32.50934484 46.62478988 32.50934484 46.62478988 30.34872818 50.12293625 C29.68872818 50.12293625 29.02872818 50.12293625 28.34872818 50.12293625 C28.09865005 50.67723312 27.84857193 51.23153 27.59091568 51.80262375 C26.13069839 54.53019944 24.39296736 56.82172822 22.47372818 59.24793625 C21.45665787 60.55117844 21.45665787 60.55117844 20.41904068 61.88074875 C17.72855347 64.79459716 15.76124337 65.98329655 11.7861557 66.37626934 C10.32502916 66.37872079 10.32502916 66.37872079 8.83438492 66.38122177 C7.15223389 66.39146378 7.15223389 66.39146378 5.43610001 66.40191269 C4.21005051 66.39935974 2.98400101 66.39680679 1.72079849 66.39417648 C-0.2666578 66.40219983 -2.25411408 66.41022559 -4.24157 66.41834176 C-6.37636533 66.42519489 -8.51111785 66.42719682 -10.64592361 66.4278965 C-15.10116526 66.42983942 -19.55625183 66.44790604 -24.01144028 66.46865463 C-35.08018358 66.51781826 -46.14896909 66.54869352 -57.21780014 66.56995773 C-65.81555039 66.58650213 -74.4131678 66.60938438 -83.01082921 66.65297848 C-87.43431567 66.67469614 -91.85754942 66.68281813 -96.28108549 66.68058574 C-99.68938301 66.68265244 -103.09751593 66.70402846 -106.50576401 66.72230148 C-108.33269287 66.71543571 -108.33269287 66.71543571 -110.19652939 66.70843124 C-120.53914283 66.79652392 -128.67199205 69.29408868 -136.65127182 76.12293625 C-144.99577758 86.21107008 -145.80315887 96.03639177 -145.78498459 108.64793015 C-145.78838292 110.38084444 -145.78838292 110.38084444 -145.79184991 112.14876711 C-145.7970727 115.34223238 -145.79783692 118.5356621 -145.79665554 121.72913027 C-145.79645097 125.17843177 -145.80197553 128.62772495 -145.8067131 132.07702255 C-145.81500786 138.82955575 -145.8177674 145.58208021 -145.81832548 152.33461808 C-145.81880115 157.82445937 -145.82085841 163.3142978 -145.82402611 168.80413818 C-145.83282903 184.37771217 -145.83744598 199.95127928 -145.83669563 215.52485578 C-145.8366357 216.7833519 -145.8366357 216.7833519 -145.83657455 218.06727219 C-145.83651323 219.3273092 -145.83651323 219.3273092 -145.83645067 220.61280151 C-145.83604418 234.22802626 -145.84561554 247.84322336 -145.85971292 261.45844011 C-145.87408245 275.44713066 -145.88098281 289.43580772 -145.88011914 303.42450583 C-145.8797874 311.27464124 -145.8825246 319.12474765 -145.8932972 326.9748764 C-145.90240973 333.65795286 -145.90457122 340.34098716 -145.89778777 347.02406715 C-145.89452653 350.43175867 -145.89445156 353.83936935 -145.90314102 357.24705315 C-145.91085505 360.94609928 -145.9062198 364.64493351 -145.89850998 368.34397507 C-145.90365354 369.41412302 -145.90879711 370.48427098 -145.91409653 371.58684766 C-145.87919668 379.17123246 -145.30174709 386.66781464 -141.71377182 393.49793625 C-141.39537338 394.12442062 -141.07697495 394.750905 -140.74892807 395.39637375 C-139.69015782 397.20516479 -139.69015782 397.20516479 -138.02236557 398.72449875 C-136.65127182 400.12293625 -136.65127182 400.12293625 -136.65127182 402.12293625 C-135.32005324 402.79381576 -133.98610909 403.45928598 -132.65127182 404.12293625 C-131.40652084 404.74688278 -131.40652084 404.74688278 -130.13662338 405.3834343 C-122.12283041 409.08427707 -115.16432833 409.89262001 -106.40127182 409.93543625 C-105.16763901 409.96057297 -103.9340062 409.98570969 -102.66299057 410.01160812 C-99.65876231 410.0698296 -96.65596933 410.10658546 -93.65127182 410.12293625 C-93.61598373 409.24403732 -93.58069565 408.3651384 -93.54433823 407.45960617 C-91.5114099 362.71089878 -67.46544953 325.88733338 -36.65127182 295.12293625 C-35.8236937 294.272155 -34.99611557 293.42137375 -34.14345932 292.54481125 C-27.98183327 286.2544348 -21.58892272 280.56477088 -14.65127182 275.12293625 C-13.50010544 274.21554236 -12.34906957 273.30798288 -11.19814682 272.40028 C-8.80398605 270.51494753 -6.40645716 268.63400306 -4.00674057 266.75574875 C-0.31375186 263.86268163 3.35257152 260.93720886 7.00888443 257.99793625 C8.55228933 256.76115102 10.10167628 255.53178918 11.65732193 254.31043625 C17.70302544 249.54534974 23.51368072 244.5472647 29.25961685 239.42689133 C29.87554703 238.88443771 30.4914772 238.3419841 31.12607193 237.7830925 C31.67513199 237.29461838 32.22419205 236.80614426 32.78989029 236.30286789 C34.34872818 235.12293625 34.34872818 235.12293625 37.34872818 234.12293625 C37.34872818 233.46293625 37.34872818 232.80293625 37.34872818 232.12293625 C38.96591129 230.69006445 40.6449619 229.32668876 42.34872818 227.99793625 C46.57650486 224.62004553 50.48135607 221.16349233 54.20419693 217.24012375 C56.0539686 215.41393751 57.94352209 213.73830373 59.91611099 212.04896164 C64.61103594 207.95246753 69.01630089 203.59944971 73.41513443 199.1893425 C74.25285889 198.35257477 75.09058334 197.51580704 75.95369339 196.65368271 C77.71379753 194.89425521 79.47265495 193.13357972 81.23031998 191.37171555 C83.9034379 188.69324214 86.58185069 186.02014752 89.26083755 183.34754562 C90.97925721 181.6284651 92.6973666 179.90907435 94.41513443 178.1893425 C95.20698639 177.39951477 95.99883835 176.60968704 96.81468582 175.79592514 C102.42029748 170.16689301 107.80789296 164.41915491 112.66122818 158.12293625 C113.21810318 157.46293625 113.77497818 156.80293625 114.34872818 156.12293625 C115.00872818 156.12293625 115.66872818 156.12293625 116.34872818 156.12293625 C116.56400162 155.58797531 116.77927505 155.05301437 117.00107193 154.5018425 C118.84123438 151.25355575 121.34718974 148.73878476 123.91122818 146.06043625 C128.58644726 141.09354183 132.99323039 135.99437584 137.26669693 130.6737175 C139.25372586 128.23932746 141.30687903 125.89360783 143.41122818 123.56043625 C146.75983508 119.83100739 149.91080907 115.98552316 153.01669693 112.05262375 C154.81550353 109.79281646 156.63006807 107.55097897 158.46200943 105.31824875 C163.87306433 98.72059359 169.23105219 92.13106083 174.1709938 85.16810226 C176.78148453 81.51780509 179.43378834 77.89950849 182.09091568 74.2830925 C182.59808121 73.59219528 183.10524673 72.90129807 183.62778091 72.18946457 C184.86776089 70.50037524 186.10819773 68.81162133 187.34872818 67.12293625 C180.30539851 67.02075827 173.26226293 66.95114698 166.21835709 66.90320969 C163.82668286 66.88320648 161.43505685 66.85599501 159.0435524 66.82117844 C155.58786432 66.77216158 152.13282785 66.74985363 148.67685318 66.73231125 C147.62322586 66.71166611 146.56959854 66.69102097 145.48404312 66.66975021 C131.62557566 66.66564595 120.7478729 71.77255031 110.97763443 81.478405 C106.28892505 86.58966704 101.96276993 92.00887766 97.60263443 97.40028 C94.69742179 100.90969631 91.63440636 104.25839238 88.55966568 107.61903 C85.53197544 111.04791594 82.74824393 114.64882466 79.97763443 118.28699875 C79.44009537 118.89285812 78.9025563 119.4987175 78.34872818 120.12293625 C77.68872818 120.12293625 77.02872818 120.12293625 76.34872818 120.12293625 C76.01421646 120.93504562 76.01421646 120.93504562 75.67294693 121.76356125 C73.9279231 124.87268924 71.59561404 127.30149382 69.16122818 129.87293625 C68.15662516 130.95041203 67.15271765 132.02853669 66.14950943 133.10731125 C65.42175308 133.88751633 65.42175308 133.88751633 64.67929459 134.68348312 C63.03210983 136.46546502 61.43458412 138.28627584 59.84872818 140.12293625 C55.64282198 144.96519705 51.29662807 149.67751623 46.94661331 154.38988876 C45.9293996 155.49314684 44.9134411 156.59756453 43.89915848 157.70351791 C33.83849729 168.66867762 23.407539 179.25036016 12.88534927 189.77161789 C10.52759444 192.13123183 8.1750134 194.49577152 5.8248291 196.86291027 C3.56120954 199.14023401 1.29048876 201.41045437 -0.97939682 203.68153 C-1.82198044 204.53129913 -2.66456406 205.38106827 -3.53268051 206.25658798 C-4.3081926 207.02902344 -5.08370468 207.80145889 -5.88271713 208.59730148 C-6.56440964 209.28041901 -7.24610214 209.96353653 -7.948452 210.66735458 C-9.65127182 212.12293625 -9.65127182 212.12293625 -11.65127182 212.12293625 C-11.65127182 212.78293625 -11.65127182 213.44293625 -11.65127182 214.12293625 C-12.31127182 214.12293625 -12.97127182 214.12293625 -13.65127182 214.12293625 C-13.65127182 214.78293625 -13.65127182 215.44293625 -13.65127182 216.12293625 C-14.97939682 217.46278 -14.97939682 217.46278 -16.90127182 219.06043625 C-19.98047416 221.67259908 -22.98887811 224.33798678 -25.94643784 227.08753586 C-31.03740432 231.81971822 -36.25002345 236.31360411 -41.66689682 240.6737175 C-45.24402888 243.60940049 -48.72880493 246.64147228 -52.21377182 249.68543625 C-57.21485927 254.04921031 -62.27283008 258.30085948 -67.49502182 262.40028 C-69.60325097 264.08457177 -71.62903427 265.83690267 -73.65127182 267.62293625 C-76.65127182 270.12293625 -76.65127182 270.12293625 -78.65127182 270.12293625 C-78.65127182 270.78293625 -78.65127182 271.44293625 -78.65127182 272.12293625 C-80.34401466 273.68726412 -82.10697034 275.17622197 -83.90127182 276.62293625 C-85.3630687 277.81403 -85.3630687 277.81403 -86.85439682 279.02918625 C-89.10021944 280.71041659 -91.09785212 282.00429524 -93.65127182 283.12293625 C-95.61647815 281.15772991 -94.82879968 277.33996162 -94.84414291 274.65320969 C-94.85640915 273.47997902 -94.85640915 273.47997902 -94.86892319 272.28304672 C-94.89382745 269.68280946 -94.91030746 267.08262703 -94.92470932 264.48231125 C-94.930033 263.59583153 -94.93535667 262.70935181 -94.94084167 261.79600906 C-94.96759733 257.10242196 -94.98696295 252.40886166 -95.00136948 247.71522141 C-95.01800778 242.8648505 -95.06277145 238.01516036 -95.11374092 233.16504669 C-95.14739222 229.43839865 -95.15894469 225.71191239 -95.16459656 221.9851265 C-95.1713168 220.19732852 -95.18655899 218.40954148 -95.21048737 216.62189102 C-95.24209265 214.11744403 -95.24218311 211.61483484 -95.23476791 209.11024094 C-95.25117325 208.37237854 -95.26757858 207.63451614 -95.28448105 206.87429428 C-95.23717184 202.96730405 -94.8144132 201.31870758 -92.28033066 198.27778244 C-90.97894653 197.21113358 -90.97894653 197.21113358 -89.65127182 196.12293625 C-88.77728745 195.30953781 -87.90330307 194.49613937 -87.00283432 193.6580925 C-84.22530933 191.13921955 -81.44248105 188.62663895 -78.65127182 186.12293625 C-77.92552963 185.46938156 -77.19978745 184.81582687 -76.45205307 184.1424675 C-71.89785733 180.12293625 -71.89785733 180.12293625 -69.65127182 180.12293625 C-69.65127182 179.46293625 -69.65127182 178.80293625 -69.65127182 178.12293625 C-68.25283432 176.71278 -68.25283432 176.71278 -66.27627182 175.06043625 C-65.16252182 174.10910812 -65.16252182 174.10910812 -64.02627182 173.13856125 C-62.85064682 172.14082687 -62.85064682 172.14082687 -61.65127182 171.12293625 C-53.94209032 164.49077275 -46.8168745 157.34551359 -39.72011948 150.06702805 C-38.96521225 149.30043869 -38.21030502 148.53384933 -37.43252182 147.74403 C-36.75254135 147.04721115 -36.07256088 146.3503923 -35.37197495 145.63245773 C-33.65127182 144.12293625 -33.65127182 144.12293625 -31.65127182 144.12293625 C-31.65127182 143.46293625 -31.65127182 142.80293625 -31.65127182 142.12293625 C-30.99127182 142.12293625 -30.33127182 142.12293625 -29.65127182 142.12293625 C-29.39676254 141.54173019 -29.14225327 140.96052414 -28.88003159 140.36170578 C-27.52068506 137.88501044 -26.01216085 136.27159179 -23.99111557 134.30262375 C-22.92473862 133.25268234 -22.92473862 133.25268234 -21.8368187 132.18153 C-21.09496323 131.46094406 -20.35310776 130.74035812 -19.58877182 129.99793625 C-18.11653989 128.56006064 -16.64638026 127.12005917 -15.17861557 125.67762375 C-14.52626938 125.04324387 -13.87392319 124.40886398 -13.20180893 123.75526047 C-11.56241182 122.18834458 -11.56241182 122.18834458 -10.65127182 120.12293625 C-9.99127182 120.12293625 -9.33127182 120.12293625 -8.65127182 120.12293625 C-8.41795151 119.560905 -8.1846312 118.99887375 -7.94424057 118.41981125 C-6.33190106 115.55559483 -4.33191562 113.65041604 -1.96377182 111.37293625 C1.6762692 107.80569605 5.12567431 104.18721193 8.43857193 100.31824875 C10.85706658 97.53871093 13.3517067 94.83164802 15.84872818 92.12293625 C20.08702673 87.51541082 24.25543133 82.85958035 28.34872818 78.12293625 C29.31335992 77.01207503 30.27822624 75.90141748 31.24325943 74.790905 C36.75821605 68.44070253 42.25497587 62.075479 47.72372818 55.68543625 C51.90232647 50.80458638 56.09336066 45.93718844 60.34872818 41.12293625 C61.0319313 40.33531906 61.71513443 39.54770187 62.41904068 38.7362175 C80.38880749 18.29325979 103.12281252 4.53383293 130.34872818 1.12293625 C133.01603436 0.97989879 135.66486529 0.87191622 138.33359146 0.81092453 C139.50391985 0.78018908 139.50391985 0.78018908 140.69789124 0.7488327 C143.31317273 0.68293393 145.92854161 0.62482552 148.54404068 0.56824875 C149.92820868 0.53684484 149.92820868 0.53684484 151.34033966 0.50480652 C176.03717821 -0.04300014 200.73735712 -0.02941212 225.43906021 -0.00743484 C232.00451325 -0.00164776 238.56992619 -0.0050931 245.13537788 -0.01100731 C250.26911089 -0.01462699 255.40283439 -0.01346939 260.53656769 -0.01087952 C262.95965073 -0.0102188 265.38273466 -0.01100827 267.80581665 -0.01335907 C291.77765536 -0.03158533 291.77765536 -0.03158533 302.34872818 1.12293625 C301.56715081 5.60865593 299.92908123 9.11490577 297.72372818 13.06043625 C296.98501248 14.4084444 296.24806748 15.75742425 295.51279068 17.10731125 C294.96026627 18.12148117 294.96026627 18.12148117 294.39657974 19.15613937 C292.88086213 22.00111168 291.49598318 24.90579779 290.09872818 27.81043625 C271.81273708 64.58880662 246.47469644 98.76829826 221.34872818 131.12293625 C220.85598404 131.75747726 220.3632399 132.39201828 219.85556412 133.04578781 C211.41843875 143.88865706 202.76508382 154.52609849 193.79037857 164.92933273 C190.74556847 168.46603774 187.7722026 172.04698167 184.84872818 175.68543625 C180.49386556 181.05379417 175.82846386 186.09227907 171.11435318 191.1424675 C169.01961894 193.38892314 166.97543149 195.66767053 164.97372818 197.99793625 C153.9264824 210.72300005 141.99320415 222.63821141 130.0694313 234.53260422 C127.45302178 237.1435998 124.84207272 239.75997185 122.23154068 242.3768425 C120.5443616 244.06336153 118.85687276 245.74957073 117.16904068 247.43543625 C116.40117233 248.20532883 115.63330399 248.97522141 114.8421669 249.76844406 C110.70720731 253.88567066 106.48371035 257.83286459 102.06320572 261.64204025 C100.14256042 263.30101558 98.28753216 265.0165987 96.45419693 266.77137375 C95.81433853 267.37965012 95.17448013 267.98792648 94.51523209 268.61463547 C93.8621608 269.23612473 93.20908951 269.85761398 92.53622818 270.49793625 C87.14059245 275.59805793 81.67296729 280.45003924 75.86435318 285.07606125 C73.23273615 287.21731486 70.72763637 289.45908766 68.22372818 291.74793625 C63.7664272 295.79497084 59.14801477 299.49253035 54.34872818 303.12293625 C34.22713741 318.14818526 34.22713741 318.14818526 15.23935318 334.540905 C13.34872818 336.12293625 13.34872818 336.12293625 11.34872818 336.12293625 C11.34872818 336.78293625 11.34872818 337.44293625 11.34872818 338.12293625 C10.68872818 338.12293625 10.02872818 338.12293625 9.34872818 338.12293625 C9.34872818 338.78293625 9.34872818 339.44293625 9.34872818 340.12293625 C8.68872818 340.12293625 8.02872818 340.12293625 7.34872818 340.12293625 C7.34872818 340.78293625 7.34872818 341.44293625 7.34872818 342.12293625 C6.68872818 342.12293625 6.02872818 342.12293625 5.34872818 342.12293625 C5.10509537 342.68883469 4.86146255 343.25473312 4.61044693 343.83778 C3.11644452 346.54363576 1.2980687 348.4529712 -0.83877182 350.68543625 C-24.45446418 376.60233825 -28.06733163 407.91822506 -28.26253891 441.43635178 C-28.29889613 447.22522895 -28.35926373 453.01389538 -28.42102814 458.80254745 C-28.44008264 460.81510331 -28.45132342 462.82772823 -28.46245956 464.84034348 C-28.47272171 466.04670456 -28.48298386 467.25306564 -28.49355698 468.49598312 C-28.50005264 469.56167526 -28.50654831 470.6273674 -28.51324081 471.72535324 C-28.65127182 474.12293625 -28.65127182 474.12293625 -29.65127182 475.12293625 C-34.42313498 475.97178809 -39.03344524 476.25319531 -43.87392807 476.26819992 C-44.90269058 476.27323784 -44.90269058 476.27323784 -45.95223618 476.27837753 C-48.20610024 476.28782294 -50.45988921 476.28982882 -52.71377182 476.290905 C-54.30776625 476.29412698 -55.9017604 476.29749172 -57.49575424 476.30099106 C-60.84122016 476.30697 -64.18666032 476.30883273 -67.5321312 476.30823898 C-70.91630094 476.30815838 -74.30033342 476.31499347 -77.68447495 476.3287468 C-117.62477312 476.48849609 -152.12952651 476.2758719 -183.17080307 447.603405 C-203.5280022 427.24620587 -212.69853757 401.864361 -212.78967732 373.42120588 C-212.78812872 372.348437 -212.78658012 371.27566811 -212.78498459 370.17039108 C-212.78725015 369.00523991 -212.7895157 367.84008874 -212.79184991 366.63962996 C-212.79705554 363.4322523 -212.79783989 360.22491023 -212.79665554 357.01752973 C-212.79645033 353.54769703 -212.80198168 350.0778725 -212.8067131 346.60804367 C-212.81499482 339.81948278 -212.81776683 333.03093057 -212.81832548 326.24236505 C-212.81880188 320.71928419 -212.82086281 315.19620618 -212.82402611 309.67312622 C-212.83282642 293.98672374 -212.83744654 278.30032808 -212.83669563 262.61392312 C-212.83665568 261.76949999 -212.83661572 260.92507686 -212.83657455 260.05506516 C-212.83653367 259.20960131 -212.83649279 258.36413747 -212.83645067 257.49305351 C-212.83604452 243.80191691 -212.84560785 230.11080785 -212.85971292 216.41967921 C-212.87410819 202.33480885 -212.88098135 188.24995189 -212.88011914 174.16507399 C-212.87978823 166.26837031 -212.88248873 158.37169549 -212.8932972 150.47499847 C-212.90244383 143.74974153 -212.90454355 137.02452653 -212.89778777 130.29926603 C-212.89454325 126.87448436 -212.89439006 123.44978297 -212.90314102 120.02500916 C-212.976007 85.10049589 -208.03791546 54.59713553 -182.90127182 28.81043625 C-176.45200892 22.42887522 -169.53461454 17.56477313 -161.65127182 13.12293625 C-160.67802963 12.560905 -159.70478745 11.99887375 -158.70205307 11.41981125 C-144.16098921 3.56406597 -129.04397716 1.02945574 -112.72549057 0.80653 C-111.3892345 0.78565257 -110.05298173 0.76456309 -108.71673203 0.74328232 C-105.0346609 0.68658823 -101.35252577 0.63725356 -97.6703186 0.59030533 C-95.33008237 0.56032493 -92.989869 0.52888432 -90.64965439 0.49726486 C-60.43412233 0.09601444 -30.21789599 0.01385328 0 0 Z " fill="#FEFEFE" transform="translate(658.6512718200684,145.8770637512207)"/>
<path d="M0 0 C5.45350228 0.30134098 8.02202829 3.47127716 11.63752747 7.1565094 C12.29108442 7.80664865 12.94464136 8.4567879 13.61800307 9.12662834 C15.80940106 11.31142849 17.9861806 13.51023619 20.16333008 15.70922852 C21.72969102 17.27671752 23.29693284 18.84332671 24.86499023 20.40911865 C29.12356221 24.66654095 33.36967158 28.93620142 37.61369538 33.20811963 C42.04950619 37.66890137 46.49661425 42.11839076 50.94255066 46.56907654 C58.40460069 54.04215448 65.85962744 61.52218197 73.30932617 69.00756836 C80.98237069 76.71733215 88.65960756 84.42288119 96.3425293 92.12280273 C96.81614798 92.59747231 97.28976666 93.07214188 97.77773742 93.56119538 C100.15378269 95.94246082 102.52991071 98.32364367 104.90607989 100.70478547 C124.61671457 120.45725312 144.31303135 140.2239467 164 160 C162.4918429 164.05089741 160.97498872 166.33507946 157.8125 169.3125 C152.90862891 174.05160102 148.47199621 179.06481917 144.08203125 184.27734375 C143.45683594 185.01082031 142.83164062 185.74429688 142.1875 186.5 C141.62417969 187.1703125 141.06085938 187.840625 140.48046875 188.53125 C139 190 139 190 137 190 C136.73896484 190.58483154 136.47792969 191.16966309 136.20898438 191.7722168 C134.05644058 195.73868734 130.68215307 198.65536044 127.5 201.8125 C126.77603027 202.53155518 126.05206055 203.25061035 125.30615234 203.99145508 C120.23319154 208.95408493 115.1756422 213.44240783 109 217 C108.19433594 217.46535156 107.38867188 217.93070313 106.55859375 218.41015625 C93.57846555 225.37758031 80.32877312 226.15559684 65.88671875 226.16796875 C64.50877347 226.17119243 63.13082852 226.17455728 61.75288391 226.17805481 C58.86739309 226.18402135 55.98193209 226.18589762 53.09643555 226.18530273 C50.1767755 226.18522196 47.25727398 226.19208794 44.33764648 226.20581055 C6.43926589 226.38121155 -30.43580297 223.0800581 -59 195 C-59 194.34 -59 193.68 -59 193 C-59.66 193 -60.32 193 -61 193 C-61 192.34 -61 191.68 -61 191 C-61.84304688 190.64421875 -61.84304688 190.64421875 -62.703125 190.28125 C-65.51894042 188.71052303 -67.47955416 186.78528536 -69.75 184.5 C-70.54921875 183.7059375 -71.3484375 182.911875 -72.171875 182.09375 C-74 180 -74 180 -74 178 C-74.66 178 -75.32 178 -76 178 C-76 177.34 -76 176.68 -76 176 C-76.66 176 -77.32 176 -78 176 C-78 175.34 -78 174.68 -78 174 C-78.66 174 -79.32 174 -80 174 C-80 173.34 -80 172.68 -80 172 C-80.66 172 -81.32 172 -82 172 C-82 171.34 -82 170.68 -82 170 C-82.58247498 169.7421875 -83.16494995 169.484375 -83.76507568 169.21875 C-86.19063451 167.8960431 -87.80514441 166.44871546 -89.75878906 164.5 C-90.47923401 163.78585937 -91.19967896 163.07171875 -91.94195557 162.3359375 C-92.70876648 161.56507813 -93.47557739 160.79421875 -94.265625 160 C-95.05902283 159.20851563 -95.85242065 158.41703125 -96.66986084 157.6015625 C-98.34324054 155.92954263 -100.01410181 154.25499903 -101.68261719 152.578125 C-104.24713597 150.00287602 -106.82216989 147.43848948 -109.3984375 144.875 C-111.02147527 143.25064116 -112.64389281 141.62566231 -114.265625 140 C-115.04053284 139.22914063 -115.81544067 138.45828125 -116.61383057 137.6640625 C-117.32166687 136.94992187 -118.02950317 136.23578125 -118.75878906 135.5 C-119.38626038 134.8709375 -120.01373169 134.241875 -120.66021729 133.59375 C-122 132 -122 132 -122 130 C-122.66 130 -123.32 130 -124 130 C-124 129.34 -124 128.68 -124 128 C-124.66 128 -125.32 128 -126 128 C-126 127.34 -126 126.68 -126 126 C-126.61875 125.773125 -127.2375 125.54625 -127.875 125.3125 C-130 124 -130 124 -131.625 121.875 C-132.09250172 118.29082016 -131.327665 117.55062373 -129.25 114.6875 C-127.578125 112.57421875 -127.578125 112.57421875 -126 111 C-125.34 111 -124.68 111 -124 111 C-123.73155273 110.40775635 -123.46310547 109.8155127 -123.18652344 109.20532227 C-121.20599121 105.52422193 -118.19860449 102.8621171 -115.25 99.9375 C-114.58693848 99.27645264 -113.92387695 98.61540527 -113.24072266 97.93432617 C-106.90146291 91.72046993 -100.08858729 86.32101966 -93 81 C-92.10152344 80.23558594 -91.20304688 79.47117187 -90.27734375 78.68359375 C-88 77 -88 77 -85.1875 77.25 C-84.465625 77.4975 -83.74375 77.745 -83 78 C-83 78.66 -83 79.32 -83 80 C-82.34 80 -81.68 80 -81 80 C-81 80.66 -81 81.32 -81 82 C-80.34 82 -79.68 82 -79 82 C-79 82.66 -79 83.32 -79 84 C-78.34 84 -77.68 84 -77 84 C-77 84.66 -77 85.32 -77 86 C-76.34 86 -75.68 86 -75 86 C-75 86.66 -75 87.32 -75 88 C-74.34 88 -73.68 88 -73 88 C-71.67485046 89.34020996 -71.67485046 89.34020996 -70.08862305 91.27148438 C-65.20400937 97.00989315 -59.88986352 102.31427377 -54.58203125 107.65625 C-54.04076788 108.2015889 -53.49950451 108.7469278 -52.94183922 109.30879211 C-50.07801505 112.19333512 -47.21102492 115.07468927 -44.34155273 117.95361328 C-41.40948687 120.89673474 -38.489299 123.85135468 -35.57161427 126.80872345 C-33.29698561 129.10972074 -31.01330121 131.40157427 -28.72723961 133.69120789 C-27.64797777 134.77528069 -26.57203793 135.86267307 -25.49979591 136.95368958 C-11.99809259 150.6770697 0.9871982 159.28592776 20.77326965 159.60565186 C22.04047348 159.60688049 23.30767731 159.60810913 24.61328125 159.609375 C25.96235592 159.62440372 27.31141251 159.64114044 28.66044617 159.65948486 C32.16361466 159.70264614 35.66653537 159.72304142 39.16992188 159.73822021 C42.76381789 159.75797927 46.35745325 159.79992599 49.95117188 159.83984375 C56.96734754 159.91458822 63.9835028 159.9652142 71 160 C69.88571386 158.71192309 68.76934584 157.42564697 67.65209961 156.14013672 C66.71991859 155.06540604 66.71991859 155.06540604 65.76890564 153.96896362 C63.83875925 151.8205234 61.80059343 149.94863169 59.5625 148.125 C57.50390625 146.4453125 57.50390625 146.4453125 56 145 C56 144.34 56 143.68 56 143 C55.34 143 54.68 143 54 143 C52.484375 141.42578125 52.484375 141.42578125 50.75 139.3125 C48.49924272 136.64650867 46.29950455 134.28989909 43.5625 132.125 C42.716875 131.42375 41.87125 130.7225 41 130 C41 129.34 41 128.68 41 128 C40.34 128 39.68 128 39 128 C39 127.34 39 126.68 39 126 C38.34 126 37.68 126 37 126 C37 125.34 37 124.68 37 124 C36.34 124 35.68 124 35 124 C33.64613064 122.34997172 32.31321858 120.6825613 31 119 C30.34 118.67 29.68 118.34 29 118 C29 117.34 29 116.68 29 116 C28.34 116 27.68 116 27 116 C27 115.34 27 114.68 27 114 C26.34 114 25.68 114 25 114 C25 113.34 25 112.68 25 112 C24.34 112 23.68 112 23 112 C23 111.34 23 110.68 23 110 C22.34 110 21.68 110 21 110 C21 109.34 21 108.68 21 108 C20.40616516 107.73082764 19.81233032 107.46165527 19.20050049 107.18432617 C16.99797566 105.99891049 15.55550407 104.80893868 13.79199219 103.05078125 C13.19167175 102.45676514 12.59135132 101.86274902 11.97283936 101.25073242 C11.019487 100.29130737 11.019487 100.29130737 10.046875 99.3125 C9.38665344 98.65419189 8.72643188 97.99588379 8.04620361 97.31762695 C6.65529499 95.92807708 5.26689992 94.53600726 3.88085938 93.14160156 C1.75090259 91.00090714 -0.38954496 88.8711209 -2.53125 86.7421875 C-3.88085039 85.39126613 -5.22983059 84.03972482 -6.578125 82.6875 C-7.22179016 82.0478833 -7.86545532 81.4082666 -8.52862549 80.74926758 C-13 76.22992911 -13 76.22992911 -13 74 C-13.66 74 -14.32 74 -15 74 C-15 73.34 -15 72.68 -15 72 C-15.58861816 71.73662842 -16.17723633 71.47325684 -16.78369141 71.2019043 C-19.09618035 69.94784139 -20.61266055 68.63114844 -22.4609375 66.76953125 C-23.09773437 66.13080078 -23.73453125 65.49207031 -24.390625 64.83398438 C-25.04546875 64.16689453 -25.7003125 63.49980469 -26.375 62.8125 C-27.02210938 62.16474609 -27.66921875 61.51699219 -28.3359375 60.84960938 C-31.96162223 57.19103033 -35.41996426 53.44677823 -38.72363281 49.49462891 C-40.37961543 47.55546946 -42.16267473 45.76665891 -44 44 C-42.70421876 41.11678008 -41.38255448 39.16552463 -39.05078125 37.0390625 C-38.16072388 36.21873535 -38.16072388 36.21873535 -37.25268555 35.38183594 C-36.2922937 34.51220215 -36.2922937 34.51220215 -35.3125 33.625 C-33.95043536 32.37248878 -32.58845871 31.11988186 -31.2265625 29.8671875 C-30.52692383 29.22749023 -29.82728516 28.58779297 -29.10644531 27.92871094 C-25.78392073 24.88652918 -22.48390226 21.82043579 -19.1875 18.75 C-18.56633301 18.17314453 -17.94516602 17.59628906 -17.30517578 17.00195312 C-12.68506857 12.69263749 -8.23096904 8.25404144 -3.85546875 3.6953125 C-2 2 -2 2 0 2 C0 1.34 0 0.68 0 0 Z " fill="#FEFEFE" transform="translate(797,396)"/>
<path d="M0 0 C19.47 0 38.94 0 59 0 C59.495 0.99 59.495 0.99 60 2 C54.19523076 8.97991044 47.79965144 15.35334828 41.37573242 21.75463867 C39.56639067 23.55862085 37.76245681 25.36788665 35.95898438 27.17773438 C30.63547954 32.50398796 25.3275283 37.78929582 19.56616211 42.64819336 C17.94556154 44.00051149 17.94556154 44.00051149 16.41625977 45.67797852 C15 47 15 47 13 47 C13 47.66 13 48.32 13 49 C9.28054101 52.91327696 5.28139679 56.51460715 0 58 C-1.69074924 56.30925076 -1.12749329 54.18457861 -1.12939453 51.86938477 C-1.13412277 50.2274691 -1.13412277 50.2274691 -1.13894653 48.55238342 C-1.1369223 47.36076096 -1.13489807 46.16913849 -1.1328125 44.94140625 C-1.13376923 43.72678207 -1.13472595 42.5121579 -1.13571167 41.26072693 C-1.13639377 38.68578032 -1.13453741 36.110832 -1.13037109 33.53588867 C-1.12502789 29.58313142 -1.13031274 25.63048804 -1.13671875 21.67773438 C-1.13605788 19.18229141 -1.13477654 16.68684853 -1.1328125 14.19140625 C-1.13483673 13.00180801 -1.13686096 11.81220978 -1.13894653 10.58656311 C-1.13579437 9.48880051 -1.13264221 8.3910379 -1.12939453 7.26000977 C-1.12859894 6.2903981 -1.12780334 5.32078644 -1.12698364 4.3217926 C-1 2 -1 2 0 0 Z " fill="#FEFEFE" transform="translate(565,263)"/>
</svg>
